<?xml version="1.0" encoding="UTF-8"?>
<svg width="77px" height="34px" viewBox="0 0 77 34" version="1.1" xmlns="http://www.w3.org/2000/svg" xmlns:xlink="http://www.w3.org/1999/xlink">
    <title>Resy Logo</title>
    <defs></defs>
    <g id="logo" stroke="none" stroke-width="1" fill-rule="evenodd">
        <path d="M0,0 L77,0 L77,34 L0,34 L0,0 Z M14.46522,23.1818182 L11.63162,23.1818182 L11.63162,10.03 L16.555,10.03 C19.77822,10.03 21.70861,11.1852273 21.70861,14.0999545 C21.70861,16.1793636 20.73456,17.3168182 18.98127,17.85 L21.90342,23.1818182 L18.8573,23.1818182 L16.12996,18.2232273 L14.46522,18.2232273 L14.46522,23.1818182 Z M14.46522,12.3937727 L14.46522,15.9838636 L16.43103,15.9838636 C18.09577,15.9838636 18.89272,15.504 18.89272,14.1710455 C18.89272,12.8736364 18.09577,12.3937727 16.43103,12.3937727 L14.46522,12.3937727 Z M36.44179,23.1818182 L36.44179,20.8358182 L30.0839,20.8358182 L30.0839,17.5656364 L34.45827,17.5656364 L34.45827,15.2729545 L30.0839,15.2729545 L30.0839,12.4470909 L36.12301,12.4470909 L36.12301,10.03 L27.19717,10.03 L27.19717,23.1818182 L36.44179,23.1818182 Z M46.12762,23.4306364 C49.77588,23.4306364 51.36978,21.5467273 51.36978,19.4317727 C51.36978,16.7125455 48.9258,15.9838636 46.6235,15.3618182 C44.90563,14.8819545 43.93158,14.5087273 43.93158,13.4601364 C43.93158,12.6781364 44.60456,12.1449545 45.82655,12.1449545 C47.10167,12.1449545 48.35908,12.8914091 49.04977,14.0110909 L51.051,12.4826364 C50.13008,11.0785909 48.53618,9.78118182 45.84426,9.78118182 C43.02837,9.78118182 41.11569,11.2563182 41.11569,13.7089545 C41.11569,16.4637273 43.55967,17.068 45.89739,17.7255909 C47.61526,18.2054545 48.55389,18.632 48.55389,19.6272727 C48.55389,20.6403182 47.59755,21.1379545 46.2693,21.1379545 C44.76395,21.1379545 43.45341,20.3381818 42.7273,18.8985909 L40.54897,20.196 C41.52302,22.0799091 43.29402,23.4306364 46.12762,23.4306364 Z M62.02119,23.1818182 L62.02119,17.6011818 L66.55495,10.03 L63.61509,10.03 L60.60439,15.1485455 L57.6114,10.03 L54.63612,10.03 L59.15217,17.6011818 L59.15217,23.1818182 L62.02119,23.1818182 Z" id="Combined-Shape"></path>
    </g>
</svg>